<svg width="1920" height="1080" viewBox="0 0 1920 1080" fill="none" xmlns="http://www.w3.org/2000/svg">
<path d="M61.4753 127.816C61.4753 127.816 339.265 100.393 491.573 180.588C621.319 248.903 615.594 366.527 742.776 438.895C909.172 533.575 1058.56 415.246 1222.03 514.111C1339.05 584.884 1325.37 700.921 1448.92 761.316C1580.84 825.802 1724.74 678.284 1814 784.405C1860.72 839.941 1856.43 947.384 1856.43 947.384" stroke="url(#paint0_linear_46_4)" stroke-width="1.5"/>
<path d="M61.4753 127.816C61.4753 127.816 339.265 100.393 491.573 180.588C621.319 248.903 615.594 366.527 742.776 438.895C909.172 533.575 1058.56 415.246 1222.03 514.111C1339.05 584.884 1325.37 700.921 1448.92 761.316C1580.84 825.802 1724.74 678.284 1814 784.405C1860.72 839.941 1856.43 947.384 1856.43 947.384" stroke="black" stroke-opacity="0.08" stroke-width="1.5"/>
<path d="M51.2839 148.865C51.2839 148.865 329.073 121.443 481.381 201.638C611.128 269.953 605.403 387.577 732.584 459.944C898.98 554.625 1048.37 436.295 1211.84 535.161C1328.86 605.934 1315.18 721.97 1438.73 782.366C1570.64 846.852 1714.55 699.333 1803.81 805.454C1850.53 860.991 1846.24 968.434 1846.24 968.434" stroke="url(#paint1_linear_46_4)" stroke-width="1.5"/>
<path d="M51.2839 148.865C51.2839 148.865 329.073 121.443 481.381 201.638C611.128 269.953 605.403 387.577 732.584 459.944C898.98 554.625 1048.37 436.295 1211.84 535.161C1328.86 605.934 1315.18 721.97 1438.73 782.366C1570.64 846.852 1714.55 699.333 1803.81 805.454C1850.53 860.991 1846.24 968.434 1846.24 968.434" stroke="black" stroke-opacity="0.08" stroke-width="1.5"/>
<path d="M37.1491 178.059C37.1491 178.059 314.938 150.637 467.247 230.832C596.993 299.147 591.268 416.771 718.45 489.138C884.845 583.819 1034.23 465.489 1197.7 564.355C1314.72 635.127 1301.04 751.164 1424.59 811.56C1556.51 876.046 1700.41 728.527 1789.68 834.648C1836.39 890.185 1832.1 997.628 1832.1 997.628" stroke="url(#paint2_linear_46_4)" stroke-width="1.5"/>
<path d="M37.1491 178.059C37.1491 178.059 314.938 150.637 467.247 230.832C596.993 299.147 591.268 416.771 718.45 489.138C884.845 583.819 1034.23 465.489 1197.7 564.355C1314.72 635.127 1301.04 751.164 1424.59 811.56C1556.51 876.046 1700.41 728.527 1789.68 834.648C1836.39 890.185 1832.1 997.628 1832.1 997.628" stroke="black" stroke-opacity="0.08" stroke-width="1.5"/>
<path d="M24.8493 208.904C24.8493 208.904 302.639 181.482 454.947 261.677C584.693 329.992 578.968 447.616 706.15 519.983C872.546 614.664 1021.93 496.334 1185.4 595.2C1302.42 665.973 1288.74 782.009 1412.29 842.405C1544.21 906.891 1688.11 759.373 1777.38 865.493C1824.09 921.03 1819.8 1028.47 1819.8 1028.47" stroke="url(#paint3_linear_46_4)" stroke-width="1.5"/>
<path d="M24.8493 208.904C24.8493 208.904 302.639 181.482 454.947 261.677C584.693 329.992 578.968 447.616 706.15 519.983C872.546 614.664 1021.93 496.334 1185.4 595.2C1302.42 665.973 1288.74 782.009 1412.29 842.405C1544.21 906.891 1688.11 759.373 1777.38 865.493C1824.09 921.03 1819.8 1028.47 1819.8 1028.47" stroke="black" stroke-opacity="0.08" stroke-width="1.5"/>
<path d="M14.6579 229.954C14.6579 229.954 292.447 202.532 444.756 282.727C574.502 351.042 568.777 468.666 695.958 541.033C862.354 635.714 1011.74 517.384 1175.21 616.25C1292.23 687.022 1278.55 803.059 1402.1 863.455C1534.02 927.941 1677.92 780.422 1767.19 886.543C1813.9 942.08 1809.61 1049.52 1809.61 1049.52" stroke="url(#paint4_linear_46_4)" stroke-width="1.5"/>
<path d="M14.6579 229.954C14.6579 229.954 292.447 202.532 444.756 282.727C574.502 351.042 568.777 468.666 695.958 541.033C862.354 635.714 1011.74 517.384 1175.21 616.25C1292.23 687.022 1278.55 803.059 1402.1 863.455C1534.02 927.941 1677.92 780.422 1767.19 886.543C1813.9 942.08 1809.61 1049.52 1809.61 1049.52" stroke="black" stroke-opacity="0.08" stroke-width="1.5"/>
<path d="M0.523158 259.148C0.523158 259.148 278.312 231.726 430.621 311.921C560.367 380.236 554.642 497.86 681.824 570.227C848.219 664.908 997.605 546.578 1161.08 645.444C1278.1 716.216 1264.42 832.253 1387.97 892.649C1519.88 957.135 1663.78 809.616 1753.05 915.737C1799.77 971.274 1795.48 1078.72 1795.48 1078.72" stroke="url(#paint5_linear_46_4)" stroke-width="1.5"/>
<path d="M0.523158 259.148C0.523158 259.148 278.312 231.726 430.621 311.921C560.367 380.236 554.642 497.86 681.824 570.227C848.219 664.908 997.605 546.578 1161.08 645.444C1278.1 716.216 1264.42 832.253 1387.97 892.649C1519.88 957.135 1663.78 809.616 1753.05 915.737C1799.77 971.274 1795.48 1078.72 1795.48 1078.72" stroke="black" stroke-opacity="0.08" stroke-width="1.5"/>
<defs>
<linearGradient id="paint0_linear_46_4" x1="1918.31" y1="819.569" x2="1502.44" y2="1317.47" gradientUnits="userSpaceOnUse">
<stop stop-color="white"/>
<stop offset="1" stop-color="#F6F6F6"/>
</linearGradient>
<linearGradient id="paint1_linear_46_4" x1="1908.12" y1="840.619" x2="1492.25" y2="1338.52" gradientUnits="userSpaceOnUse">
<stop stop-color="white"/>
<stop offset="1" stop-color="#F6F6F6"/>
</linearGradient>
<linearGradient id="paint2_linear_46_4" x1="1893.99" y1="869.813" x2="1478.11" y2="1367.72" gradientUnits="userSpaceOnUse">
<stop stop-color="white"/>
<stop offset="1" stop-color="#F6F6F6"/>
</linearGradient>
<linearGradient id="paint3_linear_46_4" x1="1881.69" y1="900.658" x2="1465.81" y2="1398.56" gradientUnits="userSpaceOnUse">
<stop stop-color="white"/>
<stop offset="1" stop-color="#F6F6F6"/>
</linearGradient>
<linearGradient id="paint4_linear_46_4" x1="1871.5" y1="921.708" x2="1455.62" y2="1419.61" gradientUnits="userSpaceOnUse">
<stop stop-color="white"/>
<stop offset="1" stop-color="#F6F6F6"/>
</linearGradient>
<linearGradient id="paint5_linear_46_4" x1="1857.36" y1="950.901" x2="1441.49" y2="1448.81" gradientUnits="userSpaceOnUse">
<stop stop-color="white"/>
<stop offset="1" stop-color="#F6F6F6"/>
</linearGradient>
</defs>
</svg>
