<svg width="760" height="390" viewBox="0 0 760 390" fill="none" xmlns="http://www.w3.org/2000/svg">
<g filter="url(#filter0_d_799_49046)">
<path fill-rule="evenodd" clip-rule="evenodd" d="M117.521 26.2095H99C99 26.2095 100.486 117.868 100.5 121.875C100.514 125.882 49 26.2095 49 26.2095L32.7042 26.0002L10 47.0591V172.651L33.0165 194H50V98.8351C50 98.3923 59.7336 116.992 70.6549 137.86C84.4364 164.195 100.109 194.143 100.5 194H116.983L139.5 173.115V46.5953L117.521 26.2095Z" fill="#333333"/>
</g>
<g filter="url(#filter1_d_799_49046)">
<path fill-rule="evenodd" clip-rule="evenodd" d="M236.81 146.846C268.751 146.846 294.644 116.212 294.644 78.4232C294.644 40.6341 268.751 10 236.81 10C204.87 10 178.977 40.6341 178.977 78.4232C178.977 116.212 204.87 146.846 236.81 146.846ZM236.809 112.634C250.98 112.634 262.468 97.3171 262.468 78.4225C262.468 59.528 250.98 44.2109 236.809 44.2109C222.638 44.2109 211.15 59.528 211.15 78.4225C211.15 97.3171 222.638 112.634 236.809 112.634ZM164.407 129.118C164.407 129.118 162.366 122.41 164.407 122.41C166.449 122.41 168.88 122.41 172.476 129.118C174.015 131.989 174.836 134.133 175.662 136.293C176.767 139.18 177.882 142.096 180.74 146.811C185.734 155.054 196.197 166.448 199.308 163.726C200.81 162.412 196.733 157.117 193.002 152.273C189.007 147.085 185.41 142.414 189.489 143.7C195.994 145.752 207.508 153.942 213.524 158.222C214.803 159.131 215.833 159.864 216.515 160.324C220.403 162.949 227.955 170.454 231.388 179.184C235.738 190.242 231.388 210.001 231.388 210.001C231.388 210.001 225.523 197.752 216.385 192.405C213.53 190.734 209.414 188.759 204.942 186.613C195.1 181.889 183.539 176.341 179.929 171.406C175.623 165.519 173.104 159.123 171.48 154.997L171.479 154.997C171.124 154.094 170.811 153.3 170.532 152.644C168.588 148.075 164.407 129.118 164.407 129.118ZM309.214 122.41C311.255 122.41 309.214 129.118 309.214 129.118C309.214 129.118 305.033 148.075 303.089 152.644C302.81 153.3 302.497 154.094 302.141 154.997C300.517 159.123 297.998 165.519 293.692 171.406C290.083 176.341 278.521 181.889 268.679 186.613C264.207 188.759 260.091 190.734 257.236 192.405C248.098 197.752 242.233 210.001 242.233 210.001C242.233 210.001 237.884 190.242 242.233 179.184C245.666 170.454 253.218 162.949 257.106 160.324C257.788 159.864 258.818 159.131 260.097 158.222C266.114 153.942 277.627 145.752 284.132 143.7C288.211 142.413 284.614 147.085 280.619 152.273C276.888 157.117 272.811 162.412 274.313 163.726C277.424 166.448 287.887 155.054 292.882 146.811C295.739 142.096 296.854 139.18 297.959 136.293C298.785 134.133 299.606 131.989 301.145 129.118C304.741 122.41 307.172 122.41 309.214 122.41Z" fill="url(#paint0_linear_799_49046)"/>
<path d="M164.407 129.118L164.896 129.01L164.891 128.991L164.886 128.972L164.407 129.118ZM172.476 129.118L172.917 128.882L172.917 128.882L172.476 129.118ZM175.662 136.293L175.195 136.472L175.195 136.472L175.662 136.293ZM180.74 146.811L181.167 146.552L181.167 146.552L180.74 146.811ZM199.308 163.726L199.637 164.103L199.637 164.103L199.308 163.726ZM193.002 152.273L192.606 152.578L192.606 152.578L193.002 152.273ZM189.489 143.7L189.639 143.223L189.639 143.223L189.489 143.7ZM213.524 158.222L213.814 157.814L213.814 157.814L213.524 158.222ZM216.515 160.324L216.235 160.738L216.235 160.738L216.515 160.324ZM231.388 179.184L230.923 179.367L230.923 179.367L231.388 179.184ZM231.388 210.001L230.937 210.217L231.565 211.526L231.877 210.108L231.388 210.001ZM216.385 192.405L216.637 191.973L216.637 191.973L216.385 192.405ZM204.942 186.613L205.159 186.162L205.159 186.162L204.942 186.613ZM179.929 171.406L179.526 171.702L179.526 171.702L179.929 171.406ZM171.48 154.997L171.945 154.814L171.942 154.808L171.48 154.997ZM171.479 154.997L171.014 155.18L171.017 155.186L171.479 154.997ZM170.532 152.644L170.072 152.84L170.072 152.84L170.532 152.644ZM309.214 129.118L308.735 128.972L308.73 128.991L308.725 129.01L309.214 129.118ZM309.214 122.41L309.214 121.91H309.214V122.41ZM303.089 152.644L303.549 152.84L303.549 152.84L303.089 152.644ZM302.141 154.997L302.607 155.181L302.607 155.181L302.141 154.997ZM293.692 171.406L293.288 171.111L293.288 171.111L293.692 171.406ZM268.679 186.613L268.462 186.162L268.462 186.162L268.679 186.613ZM257.236 192.405L256.984 191.973L256.984 191.973L257.236 192.405ZM242.233 210.001L241.744 210.108L242.056 211.526L242.684 210.217L242.233 210.001ZM242.233 179.184L242.698 179.367L242.698 179.367L242.233 179.184ZM257.106 160.324L256.827 159.909L256.827 159.909L257.106 160.324ZM260.097 158.222L260.387 158.629L260.387 158.629L260.097 158.222ZM284.132 143.7L284.283 144.177L284.283 144.177L284.132 143.7ZM280.619 152.273L280.223 151.968L280.223 151.968L280.619 152.273ZM274.313 163.726L274.643 163.35L274.643 163.35L274.313 163.726ZM292.882 146.811L293.309 147.07L293.309 147.07L292.882 146.811ZM297.959 136.293L298.426 136.472L298.426 136.472L297.959 136.293ZM301.145 129.118L301.585 129.354L301.585 129.354L301.145 129.118ZM294.144 78.4232C294.144 116.018 268.4 146.346 236.81 146.346V147.346C269.103 147.346 295.144 116.406 295.144 78.4232H294.144ZM236.81 10.5C268.4 10.5 294.144 40.8281 294.144 78.4232H295.144C295.144 40.4401 269.103 9.5 236.81 9.5V10.5ZM179.477 78.4232C179.477 40.8281 205.221 10.5 236.81 10.5V9.5C204.518 9.5 178.477 40.4401 178.477 78.4232H179.477ZM236.81 146.346C205.221 146.346 179.477 116.018 179.477 78.4232H178.477C178.477 116.406 204.518 147.346 236.81 147.346V146.346ZM261.968 78.4225C261.968 87.7721 259.125 96.2173 254.553 102.314C249.98 108.41 243.702 112.134 236.809 112.134V113.134C244.087 113.134 250.638 109.2 255.353 102.914C260.067 96.6281 262.968 87.9675 262.968 78.4225H261.968ZM236.809 44.7109C243.702 44.7109 249.98 48.4349 254.553 54.5313C259.125 60.6278 261.968 69.073 261.968 78.4225H262.968C262.968 68.8775 260.067 60.2169 255.353 53.9313C250.638 47.6455 244.087 43.7109 236.809 43.7109V44.7109ZM211.65 78.4225C211.65 69.073 214.493 60.6278 219.066 54.5313C223.638 48.4349 229.916 44.7109 236.809 44.7109V43.7109C229.531 43.7109 222.98 47.6455 218.266 53.9313C213.551 60.2169 210.65 68.8775 210.65 78.4225H211.65ZM236.809 112.134C229.916 112.134 223.638 108.41 219.066 102.314C214.493 96.2173 211.65 87.7721 211.65 78.4225H210.65C210.65 87.9675 213.551 96.6281 218.266 102.914C222.98 109.2 229.531 113.134 236.809 113.134V112.134ZM164.407 121.91C163.99 121.91 163.654 122.093 163.423 122.396C163.211 122.674 163.105 123.031 163.052 123.383C162.944 124.09 163.018 124.99 163.147 125.839C163.278 126.7 163.474 127.556 163.636 128.193C163.717 128.512 163.79 128.779 163.843 128.966C163.869 129.059 163.89 129.133 163.905 129.184C163.913 129.209 163.919 129.229 163.923 129.242C163.925 129.249 163.926 129.254 163.927 129.258C163.928 129.259 163.928 129.261 163.929 129.262C163.929 129.262 163.929 129.263 163.929 129.263C163.929 129.263 163.929 129.263 163.929 129.263C163.929 129.263 163.929 129.264 164.407 129.118C164.886 128.972 164.886 128.972 164.886 128.972C164.886 128.972 164.886 128.972 164.886 128.972C164.886 128.972 164.886 128.972 164.886 128.972C164.885 128.971 164.885 128.97 164.885 128.969C164.884 128.966 164.882 128.961 164.881 128.955C164.877 128.943 164.872 128.925 164.865 128.902C164.851 128.854 164.83 128.784 164.805 128.694C164.754 128.514 164.683 128.256 164.605 127.947C164.448 127.327 164.26 126.505 164.136 125.689C164.01 124.861 163.957 124.084 164.04 123.533C164.083 123.257 164.152 123.089 164.219 123.001C164.268 122.937 164.314 122.91 164.407 122.91L164.407 121.91ZM172.917 128.882C171.102 125.497 169.546 123.733 168.128 122.827C166.686 121.906 165.44 121.91 164.407 121.91L164.407 122.91C165.417 122.91 166.407 122.914 167.59 123.67C168.797 124.441 170.254 126.031 172.036 129.354L172.917 128.882ZM176.129 136.114C175.302 133.951 174.472 131.782 172.917 128.882L172.036 129.354C173.559 132.195 174.37 134.315 175.195 136.472L176.129 136.114ZM181.167 146.552C178.333 141.874 177.23 138.99 176.129 136.114L175.195 136.472C176.304 139.371 177.432 142.318 180.312 147.07L181.167 146.552ZM198.978 163.35C198.722 163.575 198.371 163.678 197.878 163.622C197.374 163.565 196.755 163.343 196.035 162.952C194.598 162.17 192.881 160.78 191.079 159.022C187.481 155.514 183.643 150.638 181.167 146.552L180.312 147.07C182.831 151.227 186.721 156.17 190.381 159.738C192.208 161.52 194.002 162.983 195.557 163.83C196.334 164.253 197.082 164.539 197.765 164.616C198.46 164.695 199.116 164.559 199.637 164.103L198.978 163.35ZM192.606 152.578C194.477 155.007 196.411 157.52 197.692 159.587C198.335 160.624 198.792 161.516 199.002 162.209C199.224 162.942 199.11 163.235 198.978 163.35L199.637 164.103C200.256 163.561 200.196 162.699 199.959 161.919C199.71 161.098 199.197 160.116 198.542 159.06C197.228 156.94 195.258 154.383 193.398 151.968L192.606 152.578ZM189.639 143.223C189.109 143.056 188.652 142.968 188.279 142.987C187.896 143.007 187.51 143.152 187.311 143.539C187.136 143.878 187.181 144.274 187.272 144.61C187.368 144.965 187.547 145.367 187.777 145.795C188.691 147.496 190.622 150.001 192.606 152.578L193.398 151.968C191.388 149.357 189.523 146.932 188.658 145.322C188.444 144.923 188.305 144.598 188.237 144.349C188.165 144.081 188.201 143.995 188.2 143.996C188.175 144.045 188.146 143.995 188.331 143.986C188.526 143.976 188.849 144.023 189.339 144.177L189.639 143.223ZM213.814 157.814C210.807 155.675 206.415 152.551 201.959 149.704C197.517 146.866 192.962 144.272 189.639 143.223L189.339 144.177C192.521 145.181 196.975 147.707 201.421 150.547C205.852 153.378 210.225 156.488 213.235 158.629L213.814 157.814ZM216.794 159.909C216.119 159.454 215.095 158.725 213.814 157.814L213.235 158.629C214.511 159.537 215.547 160.274 216.235 160.738L216.794 159.909ZM231.854 179.001C228.377 170.159 220.749 162.579 216.794 159.909L216.235 160.738C220.057 163.318 227.534 170.749 230.923 179.367L231.854 179.001ZM231.388 210.001C231.877 210.108 231.877 210.108 231.877 210.108C231.877 210.108 231.877 210.107 231.877 210.107C231.877 210.106 231.877 210.105 231.878 210.104C231.878 210.101 231.879 210.097 231.88 210.092C231.882 210.083 231.886 210.068 231.89 210.049C231.898 210.01 231.91 209.953 231.926 209.878C231.957 209.729 232.002 209.509 232.057 209.226C232.169 208.661 232.322 207.841 232.493 206.823C232.835 204.789 233.244 201.959 233.518 198.782C234.062 192.451 234.074 184.646 231.854 179.001L230.923 179.367C233.052 184.78 233.064 192.383 232.521 198.696C232.251 201.841 231.845 204.642 231.507 206.658C231.338 207.665 231.186 208.476 231.076 209.034C231.021 209.313 230.977 209.528 230.947 209.674C230.932 209.747 230.92 209.802 230.912 209.839C230.908 209.857 230.905 209.871 230.903 209.88C230.902 209.885 230.901 209.888 230.901 209.89C230.901 209.891 230.9 209.892 230.9 209.893C230.9 209.893 230.9 209.893 230.9 209.893C230.9 209.893 230.9 209.893 231.388 210.001ZM216.132 192.836C220.61 195.456 224.311 199.786 226.904 203.494C228.197 205.343 229.207 207.027 229.893 208.248C230.236 208.858 230.498 209.353 230.674 209.693C230.762 209.863 230.828 209.995 230.873 210.084C230.895 210.129 230.911 210.162 230.922 210.184C230.927 210.196 230.931 210.204 230.934 210.209C230.935 210.212 230.936 210.214 230.937 210.215C230.937 210.216 230.937 210.216 230.937 210.216C230.937 210.217 230.937 210.217 230.938 210.217C230.938 210.217 230.937 210.217 231.388 210.001C231.839 209.785 231.839 209.785 231.839 209.784C231.839 209.784 231.839 209.784 231.839 209.784C231.839 209.783 231.838 209.783 231.838 209.782C231.837 209.78 231.836 209.777 231.834 209.774C231.831 209.768 231.827 209.758 231.821 209.746C231.809 209.722 231.791 209.686 231.768 209.639C231.722 209.546 231.653 209.41 231.563 209.235C231.382 208.884 231.115 208.38 230.765 207.758C230.066 206.515 229.039 204.803 227.723 202.921C225.099 199.168 221.298 194.7 216.637 191.973L216.132 192.836ZM204.726 187.064C209.205 189.213 213.3 191.179 216.132 192.836L216.637 191.973C213.761 190.29 209.622 188.304 205.159 186.162L204.726 187.064ZM179.526 171.702C181.401 174.266 185.284 176.932 189.852 179.524C194.441 182.128 199.809 184.704 204.726 187.064L205.159 186.162C200.234 183.799 194.899 181.238 190.345 178.654C185.769 176.057 182.067 173.481 180.333 171.111L179.526 171.702ZM171.014 155.181C172.638 159.304 175.177 165.756 179.526 171.702L180.333 171.111C176.069 165.282 173.57 158.942 171.945 154.814L171.014 155.181ZM171.017 155.186L171.017 155.187L171.942 154.808L171.942 154.807L171.017 155.186ZM170.072 152.84C170.348 153.488 170.658 154.275 171.014 155.18L171.945 154.814C171.59 153.913 171.275 153.112 170.992 152.448L170.072 152.84ZM164.407 129.118C163.919 129.226 163.919 129.226 163.919 129.226C163.919 129.226 163.919 129.226 163.919 129.227C163.92 129.227 163.92 129.228 163.92 129.229C163.92 129.232 163.921 129.235 163.922 129.24C163.924 129.249 163.927 129.262 163.931 129.281C163.939 129.317 163.951 129.37 163.967 129.44C163.998 129.581 164.044 129.787 164.103 130.051C164.221 130.579 164.392 131.338 164.604 132.263C165.026 134.113 165.61 136.627 166.255 139.285C167.539 144.578 169.08 150.508 170.072 152.84L170.992 152.448C170.04 150.211 168.519 144.378 167.227 139.05C166.583 136.397 166 133.887 165.578 132.04C165.367 131.117 165.197 130.359 165.079 129.832C165.02 129.569 164.974 129.363 164.943 129.224C164.927 129.154 164.916 129.1 164.908 129.064C164.904 129.047 164.901 129.033 164.899 129.024C164.898 129.019 164.897 129.016 164.896 129.014C164.896 129.013 164.896 129.012 164.896 129.011C164.896 129.011 164.896 129.011 164.896 129.01C164.896 129.01 164.896 129.01 164.407 129.118ZM309.214 129.118C309.692 129.264 309.692 129.263 309.692 129.263C309.692 129.263 309.692 129.263 309.692 129.263C309.692 129.263 309.692 129.262 309.693 129.262C309.693 129.261 309.693 129.259 309.694 129.258C309.695 129.254 309.696 129.249 309.698 129.242C309.702 129.229 309.708 129.209 309.716 129.184C309.731 129.133 309.752 129.059 309.779 128.966C309.831 128.779 309.904 128.512 309.985 128.193C310.147 127.555 310.343 126.7 310.474 125.839C310.603 124.99 310.677 124.09 310.569 123.383C310.516 123.031 310.41 122.674 310.198 122.396C309.967 122.093 309.631 121.91 309.214 121.91L309.214 122.91C309.307 122.91 309.353 122.937 309.402 123.001C309.469 123.089 309.539 123.257 309.581 123.533C309.665 124.084 309.611 124.861 309.485 125.689C309.361 126.505 309.173 127.327 309.016 127.947C308.938 128.256 308.867 128.514 308.816 128.694C308.791 128.784 308.77 128.854 308.756 128.901C308.749 128.925 308.744 128.943 308.74 128.955C308.739 128.961 308.737 128.966 308.736 128.969C308.736 128.97 308.736 128.971 308.736 128.972C308.735 128.972 308.735 128.972 308.735 128.972C308.735 128.972 308.735 128.972 308.735 128.972C308.735 128.972 308.735 128.972 309.214 129.118ZM303.549 152.84C304.541 150.508 306.083 144.578 307.366 139.285C308.011 136.627 308.595 134.113 309.018 132.263C309.229 131.338 309.4 130.579 309.518 130.051C309.577 129.787 309.623 129.581 309.654 129.44C309.67 129.37 309.682 129.317 309.69 129.281C309.694 129.262 309.697 129.249 309.699 129.24C309.7 129.235 309.701 129.231 309.701 129.229C309.701 129.228 309.702 129.227 309.702 129.227C309.702 129.226 309.702 129.226 309.702 129.226C309.702 129.226 309.702 129.226 309.214 129.118C308.725 129.01 308.725 129.01 308.725 129.01C308.725 129.011 308.725 129.011 308.725 129.011C308.725 129.012 308.725 129.013 308.725 129.014C308.724 129.016 308.723 129.019 308.722 129.024C308.72 129.033 308.717 129.046 308.713 129.064C308.705 129.1 308.694 129.154 308.678 129.224C308.647 129.363 308.601 129.569 308.542 129.832C308.424 130.359 308.254 131.116 308.043 132.04C307.621 133.887 307.038 136.397 306.395 139.05C305.102 144.378 303.581 150.211 302.629 152.448L303.549 152.84ZM302.607 155.181C302.963 154.276 303.273 153.488 303.549 152.84L302.629 152.448C302.346 153.112 302.031 153.913 301.676 154.814L302.607 155.181ZM294.095 171.702C298.444 165.756 300.983 159.304 302.607 155.181L301.676 154.814C300.051 158.942 297.552 165.282 293.288 171.111L294.095 171.702ZM268.895 187.064C273.812 184.704 279.18 182.128 283.769 179.524C288.337 176.932 292.22 174.266 294.095 171.702L293.288 171.111C291.554 173.481 287.852 176.057 283.276 178.654C278.722 181.238 273.387 183.799 268.462 186.162L268.895 187.064ZM257.489 192.836C260.322 191.179 264.416 189.213 268.895 187.064L268.462 186.162C263.999 188.304 259.86 190.29 256.984 191.973L257.489 192.836ZM242.233 210.001C242.684 210.217 242.684 210.217 242.684 210.217C242.684 210.217 242.684 210.217 242.684 210.216C242.684 210.216 242.684 210.216 242.684 210.215C242.685 210.214 242.686 210.212 242.687 210.209C242.69 210.204 242.694 210.196 242.699 210.184C242.71 210.162 242.727 210.128 242.749 210.084C242.793 209.995 242.859 209.863 242.947 209.693C243.123 209.353 243.385 208.858 243.728 208.248C244.414 207.027 245.424 205.343 246.717 203.494C249.31 199.786 253.012 195.456 257.489 192.836L256.984 191.973C252.323 194.7 248.522 199.168 245.898 202.921C244.582 204.803 243.555 206.515 242.856 207.758C242.507 208.38 242.239 208.884 242.058 209.235C241.968 209.41 241.899 209.546 241.853 209.639C241.83 209.686 241.812 209.722 241.8 209.746C241.794 209.758 241.79 209.768 241.787 209.774C241.785 209.777 241.784 209.78 241.783 209.782C241.783 209.783 241.782 209.783 241.782 209.784C241.782 209.784 241.782 209.784 241.782 209.784C241.782 209.785 241.782 209.785 242.233 210.001ZM241.767 179.001C239.547 184.646 239.559 192.451 240.104 198.782C240.377 201.959 240.787 204.789 241.128 206.823C241.299 207.841 241.452 208.661 241.564 209.226C241.619 209.509 241.664 209.729 241.695 209.878C241.711 209.953 241.723 210.01 241.731 210.049C241.736 210.068 241.739 210.083 241.741 210.092C241.742 210.097 241.743 210.101 241.743 210.104C241.744 210.105 241.744 210.106 241.744 210.107C241.744 210.107 241.744 210.108 241.744 210.108C241.744 210.108 241.744 210.108 242.233 210.001C242.721 209.893 242.721 209.893 242.721 209.893C242.721 209.893 242.721 209.893 242.721 209.893C242.721 209.892 242.721 209.891 242.72 209.89C242.72 209.888 242.719 209.885 242.718 209.88C242.716 209.871 242.713 209.857 242.709 209.839C242.701 209.802 242.69 209.747 242.674 209.674C242.644 209.528 242.6 209.312 242.545 209.034C242.435 208.476 242.283 207.665 242.114 206.658C241.776 204.642 241.37 201.841 241.1 198.696C240.557 192.383 240.569 184.78 242.698 179.367L241.767 179.001ZM256.827 159.909C252.872 162.579 245.244 170.159 241.767 179.001L242.698 179.367C246.087 170.749 253.564 163.318 257.386 160.738L256.827 159.909ZM259.807 157.814C258.526 158.725 257.502 159.454 256.827 159.909L257.386 160.738C258.074 160.274 259.111 159.537 260.387 158.629L259.807 157.814ZM283.982 143.223C280.659 144.272 276.104 146.866 271.662 149.704C267.207 152.551 262.814 155.675 259.807 157.814L260.387 158.629C263.396 156.488 267.769 153.378 272.201 150.547C276.646 147.707 281.1 145.181 284.283 144.177L283.982 143.223ZM281.015 152.578C282.999 150.001 284.93 147.496 285.844 145.795C286.074 145.367 286.253 144.965 286.349 144.61C286.44 144.274 286.485 143.878 286.31 143.539C286.111 143.152 285.725 143.007 285.342 142.987C284.969 142.968 284.512 143.056 283.982 143.223L284.283 144.177C284.772 144.023 285.095 143.976 285.29 143.986C285.475 143.995 285.446 144.045 285.421 143.996C285.42 143.995 285.456 144.081 285.384 144.349C285.316 144.598 285.177 144.923 284.963 145.322C284.098 146.932 282.233 149.357 280.223 151.968L281.015 152.578ZM274.643 163.35C274.511 163.235 274.397 162.942 274.619 162.209C274.829 161.516 275.286 160.624 275.929 159.587C277.21 157.52 279.144 155.007 281.015 152.578L280.223 151.968C278.363 154.383 276.393 156.94 275.079 159.06C274.424 160.116 273.911 161.098 273.662 161.919C273.426 162.699 273.365 163.561 273.984 164.103L274.643 163.35ZM292.454 146.552C289.978 150.638 286.14 155.514 282.542 159.022C280.74 160.78 279.023 162.17 277.586 162.952C276.866 163.343 276.247 163.565 275.743 163.622C275.25 163.678 274.899 163.575 274.643 163.35L273.984 164.103C274.505 164.559 275.162 164.695 275.856 164.616C276.539 164.539 277.287 164.253 278.064 163.83C279.619 162.983 281.413 161.52 283.24 159.738C286.9 156.17 290.79 151.227 293.309 147.07L292.454 146.552ZM297.492 136.114C296.392 138.99 295.289 141.874 292.454 146.552L293.309 147.07C296.189 142.318 297.317 139.371 298.426 136.472L297.492 136.114ZM300.704 128.882C299.149 131.782 298.319 133.951 297.492 136.114L298.426 136.472C299.251 134.315 300.062 132.195 301.585 129.354L300.704 128.882ZM309.214 121.91C308.181 121.91 306.935 121.906 305.493 122.827C304.075 123.733 302.519 125.497 300.704 128.882L301.585 129.354C303.367 126.031 304.824 124.441 306.031 123.67C307.214 122.914 308.204 122.91 309.214 122.91V121.91Z" fill="url(#paint1_linear_799_49046)"/>
</g>
<g filter="url(#filter2_d_799_49046)">
<path fill-rule="evenodd" clip-rule="evenodd" d="M334.121 47.1644L355.285 26.0002H374.621V158H423.957L444.621 178.664V194H355.285L334.121 172.836V47.1644Z" fill="#333333"/>
</g>
<g filter="url(#filter3_d_799_49046)">
<path fill-rule="evenodd" clip-rule="evenodd" d="M468.621 47.1644L489.785 26.0002H509.121V158H558.457L579.121 178.664V194H489.785L468.621 172.836V47.1644Z" fill="#333333"/>
</g>
<g filter="url(#filter4_d_799_49046)">
<path fill-rule="evenodd" clip-rule="evenodd" d="M661.831 26.0002H690.989L700.629 38.2114L749.584 176.438L742.245 194H712.804L701.804 158H650.804L639.804 194H610.574L603.121 176.164L651.808 38.6959L661.831 26.0002ZM651.621 128L667.747 75.0002H683.874L700.621 128H651.621Z" fill="#333333"/>
</g>
<path d="M10 234.001H749.584V254.001H10V234.001Z" fill="#333333"/>
<g filter="url(#filter5_d_799_49046)">
<path fill-rule="evenodd" clip-rule="evenodd" d="M20 294.441V373.161H45.08C51 373.161 56.2 372.321 60.68 370.641C65.16 368.961 68.64 366.401 71.12 362.961C73.68 359.521 74.96 355.241 74.96 350.121C74.96 344.681 73.44 340.401 70.4 337.281C67.44 334.161 63.6 332.161 58.88 331.281V330.801C62.64 329.601 65.48 327.441 67.4 324.321C69.4 321.121 70.4 317.561 70.4 313.641C70.4 309.001 69.24 305.281 66.92 302.481C64.68 299.681 61.52 297.641 57.44 296.361C53.44 295.081 48.76 294.441 43.4 294.441H20ZM41.6 327.921H29.96V302.361H42.08C48.24 302.361 52.84 303.321 55.88 305.241C59 307.161 60.56 310.401 60.56 314.961C60.56 318.961 59.08 322.121 56.12 324.441C53.16 326.761 48.32 327.921 41.6 327.921ZM43.64 365.241H29.96V335.601H43.64C50.52 335.601 55.8 336.761 59.48 339.081C63.24 341.321 65.12 344.881 65.12 349.761C65.12 355.041 63.24 358.961 59.48 361.521C55.72 364.001 50.44 365.241 43.64 365.241ZM249.039 341.121L252.759 329.121C254.199 324.721 255.559 320.361 256.839 316.041C258.119 311.641 259.359 307.161 260.559 302.601H261.039C262.319 307.161 263.599 311.641 264.879 316.041C266.159 320.361 267.519 324.721 268.959 329.121L272.679 341.121H249.039ZM255.399 294.441L228.759 373.161H238.959L246.519 349.161H275.199L282.639 373.161H293.319L266.679 294.441H255.399ZM448.644 373.161V294.441H458.964L487.404 343.881L495.924 360.201H496.404C496.164 356.201 495.884 352.081 495.564 347.841C495.324 343.521 495.204 339.281 495.204 335.121V294.441H504.684V373.161H494.364L465.804 323.601L457.284 307.401H456.804C457.124 311.321 457.404 315.361 457.644 319.521C457.964 323.681 458.124 327.841 458.124 332.001V373.161H448.644ZM681.384 294.441V373.161H691.344V348.201L704.904 332.241L728.424 373.161H739.584L711.144 324.441L735.744 294.441H724.464L691.704 333.921H691.344V294.441H681.384Z" fill="#333333"/>
</g>
<defs>
<filter id="filter0_d_799_49046" x="6" y="26.0002" width="137.5" height="176" filterUnits="userSpaceOnUse" color-interpolation-filters="sRGB">
<feFlood flood-opacity="0" result="BackgroundImageFix"/>
<feColorMatrix in="SourceAlpha" type="matrix" values="0 0 0 0 0 0 0 0 0 0 0 0 0 0 0 0 0 0 127 0" result="hardAlpha"/>
<feOffset dy="4"/>
<feGaussianBlur stdDeviation="2"/>
<feComposite in2="hardAlpha" operator="out"/>
<feColorMatrix type="matrix" values="0 0 0 0 0 0 0 0 0 0 0 0 0 0 0 0 0 0 0.25 0"/>
<feBlend mode="normal" in2="BackgroundImageFix" result="effect1_dropShadow_799_49046"/>
<feBlend mode="normal" in="SourceGraphic" in2="effect1_dropShadow_799_49046" result="shape"/>
</filter>
<filter id="filter1_d_799_49046" x="159" y="9.5" width="155.621" height="210.026" filterUnits="userSpaceOnUse" color-interpolation-filters="sRGB">
<feFlood flood-opacity="0" result="BackgroundImageFix"/>
<feColorMatrix in="SourceAlpha" type="matrix" values="0 0 0 0 0 0 0 0 0 0 0 0 0 0 0 0 0 0 127 0" result="hardAlpha"/>
<feOffset dy="4"/>
<feGaussianBlur stdDeviation="2"/>
<feComposite in2="hardAlpha" operator="out"/>
<feColorMatrix type="matrix" values="0 0 0 0 0 0 0 0 0 0 0 0 0 0 0 0 0 0 0.25 0"/>
<feBlend mode="normal" in2="BackgroundImageFix" result="effect1_dropShadow_799_49046"/>
<feBlend mode="normal" in="SourceGraphic" in2="effect1_dropShadow_799_49046" result="shape"/>
</filter>
<filter id="filter2_d_799_49046" x="330.121" y="26.0002" width="118.5" height="176" filterUnits="userSpaceOnUse" color-interpolation-filters="sRGB">
<feFlood flood-opacity="0" result="BackgroundImageFix"/>
<feColorMatrix in="SourceAlpha" type="matrix" values="0 0 0 0 0 0 0 0 0 0 0 0 0 0 0 0 0 0 127 0" result="hardAlpha"/>
<feOffset dy="4"/>
<feGaussianBlur stdDeviation="2"/>
<feComposite in2="hardAlpha" operator="out"/>
<feColorMatrix type="matrix" values="0 0 0 0 0 0 0 0 0 0 0 0 0 0 0 0 0 0 0.25 0"/>
<feBlend mode="normal" in2="BackgroundImageFix" result="effect1_dropShadow_799_49046"/>
<feBlend mode="normal" in="SourceGraphic" in2="effect1_dropShadow_799_49046" result="shape"/>
</filter>
<filter id="filter3_d_799_49046" x="464.621" y="26.0002" width="118.5" height="176" filterUnits="userSpaceOnUse" color-interpolation-filters="sRGB">
<feFlood flood-opacity="0" result="BackgroundImageFix"/>
<feColorMatrix in="SourceAlpha" type="matrix" values="0 0 0 0 0 0 0 0 0 0 0 0 0 0 0 0 0 0 127 0" result="hardAlpha"/>
<feOffset dy="4"/>
<feGaussianBlur stdDeviation="2"/>
<feComposite in2="hardAlpha" operator="out"/>
<feColorMatrix type="matrix" values="0 0 0 0 0 0 0 0 0 0 0 0 0 0 0 0 0 0 0.25 0"/>
<feBlend mode="normal" in2="BackgroundImageFix" result="effect1_dropShadow_799_49046"/>
<feBlend mode="normal" in="SourceGraphic" in2="effect1_dropShadow_799_49046" result="shape"/>
</filter>
<filter id="filter4_d_799_49046" x="599.121" y="26.0002" width="154.463" height="176" filterUnits="userSpaceOnUse" color-interpolation-filters="sRGB">
<feFlood flood-opacity="0" result="BackgroundImageFix"/>
<feColorMatrix in="SourceAlpha" type="matrix" values="0 0 0 0 0 0 0 0 0 0 0 0 0 0 0 0 0 0 127 0" result="hardAlpha"/>
<feOffset dy="4"/>
<feGaussianBlur stdDeviation="2"/>
<feComposite in2="hardAlpha" operator="out"/>
<feColorMatrix type="matrix" values="0 0 0 0 0 0 0 0 0 0 0 0 0 0 0 0 0 0 0.25 0"/>
<feBlend mode="normal" in2="BackgroundImageFix" result="effect1_dropShadow_799_49046"/>
<feBlend mode="normal" in="SourceGraphic" in2="effect1_dropShadow_799_49046" result="shape"/>
</filter>
<filter id="filter5_d_799_49046" x="16" y="294.441" width="727.584" height="86.72" filterUnits="userSpaceOnUse" color-interpolation-filters="sRGB">
<feFlood flood-opacity="0" result="BackgroundImageFix"/>
<feColorMatrix in="SourceAlpha" type="matrix" values="0 0 0 0 0 0 0 0 0 0 0 0 0 0 0 0 0 0 127 0" result="hardAlpha"/>
<feOffset dy="4"/>
<feGaussianBlur stdDeviation="2"/>
<feComposite in2="hardAlpha" operator="out"/>
<feColorMatrix type="matrix" values="0 0 0 0 0 0 0 0 0 0 0 0 0 0 0 0 0 0 0.25 0"/>
<feBlend mode="normal" in2="BackgroundImageFix" result="effect1_dropShadow_799_49046"/>
<feBlend mode="normal" in="SourceGraphic" in2="effect1_dropShadow_799_49046" result="shape"/>
</filter>
<linearGradient id="paint0_linear_799_49046" x1="237" y1="10" x2="374" y2="134" gradientUnits="userSpaceOnUse">
<stop stop-color="#2F7DF2"/>
<stop offset="1" stop-color="#655CDF"/>
</linearGradient>
<linearGradient id="paint1_linear_799_49046" x1="236.811" y1="10" x2="236.811" y2="210.001" gradientUnits="userSpaceOnUse">
<stop stop-color="#2F7DF2"/>
<stop offset="1" stop-color="#655CDF"/>
</linearGradient>
</defs>
</svg>
